<svg xmlns="http://www.w3.org/2000/svg" viewBox="0 0 240 240" role="img" aria-label="geohalo">
  <rect width="240" height="240" rx="32" fill="#0b1220"/>

  <g>
    <rect x="92"  y="64"  width="28" height="28" fill="#f59e0b" opacity="0.18"/>
    <rect x="120" y="64"  width="28" height="28" fill="#f59e0b" opacity="0.42"/>

    <rect x="64"  y="92"  width="28" height="28" fill="#f59e0b" opacity="0.30"/>
    <rect x="92"  y="92"  width="28" height="28" fill="#f59e0b" opacity="0.85"/>
    <rect x="120" y="92"  width="28" height="28" fill="#f59e0b" opacity="0.95"/>
    <rect x="148" y="92"  width="28" height="28" fill="#f59e0b" opacity="0.55"/>

    <rect x="64"  y="120" width="28" height="28" fill="#f59e0b" opacity="0.65"/>
    <rect x="92"  y="120" width="28" height="28" fill="#f59e0b" opacity="1.00"/>
    <rect x="120" y="120" width="28" height="28" fill="#f59e0b" opacity="0.90"/>
    <rect x="148" y="120" width="28" height="28" fill="#f59e0b" opacity="0.35"/>

    <rect x="92"  y="148" width="28" height="28" fill="#f59e0b" opacity="0.50"/>
    <rect x="120" y="148" width="28" height="28" fill="#f59e0b" opacity="0.30"/>
  </g>

  <g stroke="#1e293b" stroke-width="1.5">
    <line x1="36"  y1="64"  x2="204" y2="64"/>
    <line x1="36"  y1="92"  x2="204" y2="92"/>
    <line x1="36"  y1="120" x2="204" y2="120"/>
    <line x1="36"  y1="148" x2="204" y2="148"/>
    <line x1="36"  y1="176" x2="204" y2="176"/>
    <line x1="64"  y1="36"  x2="64"  y2="204"/>
    <line x1="92"  y1="36"  x2="92"  y2="204"/>
    <line x1="120" y1="36"  x2="120" y2="204"/>
    <line x1="148" y1="36"  x2="148" y2="204"/>
    <line x1="176" y1="36"  x2="176" y2="204"/>
  </g>

  <path d="M 100,76 L 142,72 L 168,108 L 172,130 L 158,160 L 110,166 L 76,138 L 62,110 L 78,86 Z"
        fill="none" stroke="#fef3c7" stroke-width="3" stroke-linejoin="round" stroke-linecap="round"/>
</svg>
